<svg width="336" height="336" viewBox="0 0 336 336" fill="none" xmlns="http://www.w3.org/2000/svg">
<circle cx="167.69" cy="167.69" r="167.69" fill="#F2F0E3"/>
<path d="M168.743 0C213.554 1.71741e-05 251.94 27.5105 267.933 66.5635C307.454 82.337 335.379 120.962 335.379 166.11C335.379 210.792 308.027 249.083 269.155 265.159C253.968 305.864 214.742 334.853 168.743 334.853C122.84 334.853 83.6801 305.986 68.4243 265.415C29.2223 249.491 1.57966 211.029 1.57959 166.11C1.57959 120.722 29.8023 81.9263 69.6558 66.3135C85.7104 27.3933 124.027 0 168.743 0Z" fill="#2E2E2E"/>
<rect x="68.4446" y="65.8123" width="200.596" height="200.596" fill="#F2F0E3"/>
<circle cx="168.742" cy="166.11" r="100.298" fill="#2E2E2E"/>
</svg>
