<svg width="73" height="75" viewBox="0 0 73 75" fill="none" xmlns="http://www.w3.org/2000/svg">
<path d="M0 74.592V71.712L2.88 71.232C4.864 70.912 6.144 70.368 6.72 69.6C7.36 68.896 7.68 67.552 7.68 65.568V13.248C7.68 11.2 7.232 9.76 6.336 8.928C5.44 8.032 3.392 7.392 0.192 7.008V4.608L14.688 0.384001H16.032V7.392H16.608C18.4 5.664 20.16 4.256 21.888 3.168C23.616 2.08 25.376 1.28 27.168 0.768002C28.96 0.256001 30.88 0 32.928 0C37.344 0 41.216 1.056 44.544 3.168C47.936 5.216 50.56 8.064 52.416 11.712C54.336 15.36 55.296 19.616 55.296 24.48C55.296 29.792 54.112 34.528 51.744 38.688C49.44 42.784 46.272 46.016 42.24 48.384C38.208 50.688 33.632 51.84 28.512 51.84C26.336 51.84 24.224 51.584 22.176 51.072C20.128 50.624 18.176 49.952 16.32 49.056V64.608C16.32 66.784 16.704 68.352 17.472 69.312C18.24 70.272 19.616 70.88 21.6 71.136L25.92 71.712V74.592H0ZM29.952 48.192C35.072 48.192 39.072 46.464 41.952 43.008C44.832 39.488 46.272 34.56 46.272 28.224C46.272 23.808 45.568 19.968 44.16 16.704C42.816 13.376 40.864 10.816 38.304 9.024C35.744 7.168 32.672 6.24 29.088 6.24C26.72 6.24 24.448 6.656 22.272 7.488C20.096 8.32 18.112 9.568 16.32 11.232V33.312C16.32 36.384 16.832 39.04 17.856 41.28C18.88 43.456 20.384 45.152 22.368 46.368C24.416 47.584 26.944 48.192 29.952 48.192Z" fill="#F76F53"/>
<path d="M66.9638 51.84C65.3638 51.84 63.9557 51.296 62.7397 50.208C61.5877 49.12 61.0117 47.68 61.0117 45.888C61.0117 44.224 61.5877 42.848 62.7397 41.76C63.9557 40.672 65.3638 40.128 66.9638 40.128C68.5638 40.128 69.9398 40.672 71.0918 41.76C72.2438 42.848 72.8197 44.224 72.8197 45.888C72.8197 47.68 72.2438 49.12 71.0918 50.208C69.9398 51.296 68.5638 51.84 66.9638 51.84Z" fill="#F76F53"/>
</svg>
