<svg width="118" height="118" viewBox="0 0 118 118" fill="none" xmlns="http://www.w3.org/2000/svg">
<circle cx="58.5885" cy="58.5885" r="58.5885" fill="#2E2E2E"/>
<path d="M58.9561 0C74.6119 0 88.0201 9.61218 93.6084 23.2559C107.418 28.766 117.177 42.2608 117.177 58.0361C117.177 73.6472 107.62 87.0237 94.0381 92.6406C88.7324 106.863 75.0283 116.993 58.9561 116.993C42.9178 116.993 29.238 106.906 23.9082 92.7305C10.211 87.1671 0.551758 73.7306 0.551758 58.0361C0.551932 42.1776 10.4137 28.6233 24.3389 23.1689C29.9483 9.57127 43.3334 6.62142e-05 58.9561 0Z" fill="#F2F0E3"/>
<rect x="23.9136" y="22.9939" width="70.0855" height="70.0855" fill="#2E2E2E"/>
<circle cx="58.9563" cy="58.0366" r="35.0427" fill="#F2F0E3"/>
</svg>
